<svg width="132" height="132" viewBox="0 0 132 132" fill="none" xmlns="http://www.w3.org/2000/svg">
<path d="M121.283 66C127.202 66 132.089 70.8291 131.132 76.67C129.378 87.3779 125 97.5463 118.318 106.235C109.446 117.771 97.0098 126.052 82.9443 129.788C68.8788 133.524 53.9727 132.507 40.5454 126.894C27.118 121.281 15.9224 111.388 8.70025 98.7527C1.47814 86.1179 -1.36537 71.4502 0.61213 57.0319C2.58963 42.6136 9.27724 29.2532 19.6345 19.0294C29.9917 8.80562 43.4377 2.29177 57.8804 0.501361C68.7578 -0.847077 79.7412 0.540694 89.8582 4.46305C95.3767 6.60256 97.0579 13.264 94.0544 18.364C91.0508 23.464 84.488 25.0195 78.8195 23.317C72.9289 21.5479 66.6977 21.0059 60.5172 21.7721C50.7648 22.981 41.6854 27.3795 34.6917 34.2831C27.698 41.1867 23.1822 50.2084 21.8468 59.9443C20.5115 69.6803 22.4316 79.5846 27.3083 88.1162C32.1851 96.6479 39.745 103.328 48.8118 107.119C57.8786 110.909 67.9439 111.596 77.4416 109.073C86.9393 106.55 95.3369 100.958 101.328 93.1685C105.124 88.2318 107.819 82.5875 109.284 76.614C110.694 70.8656 115.365 66 121.283 66Z" fill="#FF9B2C"/>
</svg>
