<svg width="100" height="36" viewBox="0 0 100 36" fill="none" xmlns="http://www.w3.org/2000/svg">
<path d="M51.6281 11.1098L56.3857 10.8022C56.4942 11.5803 56.6932 12.1593 57.0188 12.5755C57.5434 13.2268 58.267 13.5525 59.2258 13.5525C59.9313 13.5525 60.492 13.3897 60.8719 13.0459C61.2337 12.7745 61.4508 12.3402 61.4508 11.8879C61.4508 11.4536 61.2518 11.0374 60.9081 10.766C60.5463 10.4403 59.6961 10.1146 58.3575 9.82514C56.1686 9.3366 54.5948 8.68521 53.6722 7.85287C52.7496 7.07482 52.225 5.93489 52.2612 4.72258C52.2612 3.89025 52.5145 3.05792 52.9848 2.37034C53.5275 1.59229 54.2692 0.977086 55.1556 0.633296C56.1143 0.21713 57.453 0 59.1353 0C61.1975 0 62.7713 0.379978 63.8567 1.15803C64.9421 1.91798 65.5933 3.14839 65.7923 4.83115L61.089 5.10256C60.9624 4.37879 60.7091 3.85406 60.2931 3.51027C59.877 3.16648 59.3343 3.00363 58.6288 3.00363C58.0499 3.00363 57.6158 3.13029 57.3263 3.36552C57.055 3.58265 56.8741 3.90834 56.8922 4.27023C56.8922 4.54164 57.0369 4.79496 57.254 4.9578C57.4891 5.17493 58.0499 5.37397 58.9363 5.55491C61.1252 6.02536 62.6809 6.49581 63.6397 6.98435C64.5984 7.4729 65.2858 8.07 65.7019 8.77568C66.136 9.49944 66.3531 10.3318 66.335 11.1822C66.335 12.1955 66.0456 13.2088 65.4667 14.0592C64.8698 14.9458 64.0376 15.6334 63.0608 16.0495C62.0297 16.5019 60.7272 16.7371 59.1715 16.7371C56.4219 16.7371 54.5224 16.2124 53.4551 15.1448C52.3878 14.0773 51.7547 12.7383 51.6281 11.1098ZM1.13965 16.4657V0.289507H9.47902C11.0166 0.289507 12.2106 0.416166 13.0246 0.687579C13.8205 0.940897 14.526 1.46563 14.9964 2.1713C15.521 2.94935 15.7742 3.85406 15.7562 4.79496C15.8104 6.38724 14.9964 7.90716 13.6035 8.7033C13.0608 9.0109 12.4638 9.22803 11.8488 9.3366C12.301 9.46326 12.7533 9.68038 13.1512 9.9337C13.4588 10.187 13.712 10.4765 13.9472 10.7841C14.2185 11.0917 14.4537 11.4355 14.6527 11.7974L17.0767 16.4838H11.3965L8.71925 11.5079C8.37554 10.8746 8.08611 10.4584 7.81476 10.2594C7.45297 10.0061 7.01881 9.87942 6.58466 9.87942H6.15051V16.4476H1.13965V16.4657ZM6.15051 6.8396H8.267C8.71925 6.80341 9.1534 6.73103 9.58755 6.62247C9.91317 6.56819 10.2026 6.38724 10.4016 6.11583C10.89 5.46444 10.8177 4.54164 10.2207 3.98072C9.89508 3.70931 9.26194 3.56455 8.35745 3.56455H6.15051V6.8396ZM0 30.3258L4.7576 30.0182C4.86614 30.7963 5.06512 31.3753 5.39074 31.7915C5.89725 32.4429 6.63893 32.7866 7.59768 32.7866C8.30318 32.7866 8.86396 32.6238 9.24385 32.28C9.60564 31.9905 9.82272 31.5743 9.82272 31.122C9.82272 30.6877 9.62373 30.2716 9.28003 30.0001C8.91823 29.6744 8.06802 29.3488 6.71129 29.0592C4.52243 28.5707 2.94863 27.9193 2.02605 27.087C1.10347 26.3089 0.578871 25.169 0.615051 23.9567C0.615051 23.1244 0.868307 22.292 1.33864 21.6044C1.88133 20.8264 2.62301 20.2112 3.50941 19.8674C4.46816 19.4512 5.8068 19.2341 7.48915 19.2341C9.55137 19.2341 11.1252 19.6141 12.2106 20.3921C13.2959 21.1702 13.9291 22.3825 14.1281 24.0653L9.42475 24.3367C9.29812 23.6129 9.04486 23.0882 8.6288 22.7444C8.23083 22.4006 7.67004 22.2377 6.96454 22.2558C6.38567 22.2558 5.95152 22.3825 5.66208 22.6358C5.37265 22.8529 5.20984 23.1786 5.22793 23.5405C5.22793 23.8119 5.37265 24.0653 5.58973 24.2281C5.82489 24.4452 6.38567 24.6443 7.27207 24.8252C9.46093 25.2957 11.0166 25.7661 11.9754 26.2547C12.9342 26.7432 13.6216 27.3403 14.0376 28.046C14.4718 28.7697 14.6889 29.6021 14.6889 30.4344C14.6889 31.4477 14.3813 32.4429 13.8205 33.2933C13.2236 34.1799 12.3915 34.8675 11.4146 35.2836C10.3835 35.736 9.08104 35.9712 7.52533 35.9712C4.77569 35.9712 2.87627 35.4465 1.80897 34.3789C0.741679 33.2933 0.144718 31.9543 0 30.3258Z" fill="#999999"/>
<path d="M24.0593 29.0593L28.437 30.3801C28.2019 31.4839 27.7135 32.5333 27.0441 33.4561C26.4291 34.2704 25.615 34.9037 24.6925 35.3198C23.7518 35.736 22.5579 35.9531 21.1107 35.9531C19.356 35.9531 17.9088 35.6998 16.8053 35.1932C15.6838 34.6865 14.725 33.7818 13.911 32.4971C13.097 31.2125 12.699 29.5659 12.699 27.5574C12.699 24.8795 13.4045 22.8168 14.8336 21.3873C16.2627 19.9579 18.2706 19.2341 20.8755 19.2341C22.9197 19.2341 24.5116 19.6503 25.6874 20.4645C26.8451 21.2968 27.7135 22.5634 28.2923 24.2643L23.8784 25.2414C23.7699 24.8614 23.6071 24.4814 23.39 24.1557C23.1187 23.7758 22.775 23.4862 22.3589 23.2691C21.9428 23.052 21.4725 22.9615 21.0022 22.9615C19.8625 22.9615 18.9942 23.4139 18.3972 24.3367C17.945 25.0062 17.7098 26.0737 17.7098 27.5212C17.7098 29.3126 17.9812 30.543 18.5239 31.2125C19.0666 31.8819 19.8263 32.2076 20.8213 32.2076C21.78 32.2076 22.5036 31.9362 22.992 31.4115C23.4805 30.8506 23.8423 30.0725 24.0593 29.0593ZM34.28 19.5055H39.2728V25.169H44.7359V19.5055H49.7648V35.6817H44.7359V29.1316H39.2728V35.6817H34.28V19.5055Z" fill="#999999"/>
<path d="M49.0774 27.5936C49.0774 24.9519 49.8191 22.8891 51.2844 21.4235C52.7496 19.9579 54.8119 19.216 57.4349 19.216C60.1303 19.216 62.1925 19.9398 63.6578 21.3873C65.123 22.8348 65.8466 24.8614 65.8466 27.467C65.8466 29.3668 65.521 30.9049 64.8879 32.1172C64.2728 33.3114 63.3141 34.2885 62.1382 34.9399C60.9262 35.6093 59.4248 35.9531 57.6339 35.9531C55.8068 35.9531 54.3054 35.6636 53.1114 35.0846C51.8813 34.4694 50.8683 33.5104 50.199 32.3343C49.4573 31.0677 49.0774 29.4935 49.0774 27.5936ZM54.0702 27.6117C54.0702 29.2402 54.3777 30.4163 54.9747 31.1401C55.5716 31.8457 56.4038 32.2076 57.453 32.2076C58.5203 32.2076 59.3524 31.8638 59.9494 31.1582C60.5463 30.4525 60.8358 29.204 60.8358 27.3946C60.8358 25.8747 60.5282 24.7528 59.9132 24.0653C59.2981 23.3596 58.466 23.0158 57.4168 23.0158C56.4942 22.9796 55.6078 23.3777 54.9928 24.0833C54.3777 24.789 54.0702 25.9651 54.0702 27.6117ZM70.966 27.5936C70.966 24.9519 71.7077 22.8891 73.173 21.4235C74.6382 19.9579 76.7004 19.216 79.3235 19.216C82.0188 19.216 84.0991 19.9398 85.5463 21.3873C86.9935 22.8348 87.7352 24.8614 87.7352 27.467C87.7352 29.3668 87.4096 30.9049 86.7764 32.1172C86.1614 33.3114 85.2026 34.2885 84.0268 34.9399C82.8148 35.6093 81.3133 35.9531 79.5224 35.9531C77.6954 35.9531 76.1939 35.6636 75 35.0846C73.7699 34.4694 72.7569 33.5104 72.0876 32.3343C71.3459 31.0677 70.966 29.4935 70.966 27.5936ZM75.9588 27.6117C75.9588 29.2402 76.2663 30.4163 76.8633 31.1401C77.4602 31.8457 78.2923 32.2076 79.3415 32.2076C80.4088 32.2076 81.241 31.8638 81.8379 31.1582C82.4349 30.4525 82.7243 29.204 82.7243 27.3946C82.7243 25.8747 82.4168 24.7528 81.8018 24.0653C81.1867 23.3596 80.3546 23.0158 79.3054 23.0158C78.3828 22.9796 77.4783 23.3777 76.8813 24.0833C76.2663 24.789 75.9588 25.9651 75.9588 27.6117Z" fill="#999999"/>
<path d="M92.2033 19.5055V31.701H100V35.6817H87.1925V19.5055H92.2033Z" fill="#999999"/>
<path fill-rule="evenodd" clip-rule="evenodd" d="M85.2949 4.27032C88.4095 8.40436 86.8594 14.8272 81.8328 18.6161C76.8061 22.405 70.2064 22.1253 67.0918 17.9912C63.9772 13.8572 65.5273 7.43435 70.5539 3.64543C75.5806 -0.143494 82.1803 0.136281 85.2949 4.27032ZM72.9184 8.67505L71.1094 9.94164L73.642 13.5062C73.841 13.7414 73.9676 14.049 74.0219 14.3566C74.0399 14.5737 73.9133 14.7909 73.7324 14.8994C73.642 14.9718 73.5153 15.0261 73.3887 15.0261C73.2259 15.0261 73.0812 14.9718 72.9546 14.8813C72.7737 14.7366 72.6109 14.5557 72.4842 14.3566L70.9285 15.8042C71.2179 16.2022 71.5978 16.5098 72.032 16.727C72.43 16.9079 72.8641 16.9803 73.2802 16.9079C73.7143 16.8355 74.2208 16.6003 74.8178 16.1841C75.3243 15.8584 75.7042 15.4061 75.9394 14.8633C76.1203 14.429 76.1564 13.9405 76.0298 13.4881C75.8127 12.891 75.5233 12.3482 75.1434 11.8415L72.9184 8.67505ZM78.1825 10.6473L76.5363 11.9501C76.9524 12.4748 77.5313 12.8367 78.2368 12.9453C78.888 13.0538 79.702 12.7643 80.697 12.0768C81.1854 11.7511 81.6015 11.3349 81.9271 10.8463C82.1803 10.4483 82.307 9.99592 82.2889 9.52547C82.2708 9.07312 82.1261 8.63886 81.8728 8.27697C81.6738 7.96937 81.3844 7.71605 81.0407 7.5713C80.6608 7.40845 80.2447 7.37226 79.8467 7.44464C79.3764 7.51702 78.689 7.73415 77.7845 8.11413C77.4227 8.27697 77.1695 8.34935 77.0247 8.33126C76.8981 8.33126 76.7896 8.25888 76.7172 8.16841C76.6268 8.04175 76.5906 7.8789 76.6449 7.73415C76.7172 7.53511 76.8439 7.37226 77.0247 7.2637L77.079 7.20942C77.4951 6.88372 78.1101 6.97419 78.4357 7.39036L80.0638 6.10567C79.5573 5.54475 79.0146 5.27334 78.4357 5.27334C77.8569 5.27334 77.1876 5.52666 76.4278 6.05139C75.9213 6.37708 75.5052 6.79325 75.1615 7.28179C74.9263 7.62558 74.8178 8.04175 74.8178 8.45791C74.8359 8.8198 74.9444 9.18168 75.1615 9.48928C75.4509 9.94164 75.9394 10.213 76.464 10.2673C77.0067 10.3216 77.7302 10.1769 78.6528 9.79688C79.2136 9.56166 79.5935 9.47119 79.8106 9.48928C79.8648 9.48928 79.9191 9.50738 79.9734 9.52547C80.299 9.63403 80.4799 9.99592 80.3714 10.3216C80.299 10.5749 80.1181 10.774 79.901 10.9187C79.5935 11.1539 79.2136 11.2263 78.8518 11.1178C78.5986 11.0273 78.3634 10.8644 78.1825 10.6473Z" fill="#999999"/>
</svg>
